<svg xmlns="http://www.w3.org/2000/svg" width="298.232" height="291"><g id="Group_698" data-name="Group 698" transform="translate(-16059.232 -14400)"><rect id="Rectangle_2987" data-name="Rectangle 2987" width="5" height="289" rx="2.5" transform="translate(16107.232 14400)"/><g id="Group_697" data-name="Group 697"><path id="Rectangle_2974" data-name="Rectangle 2974" transform="rotate(45 -9307.206 26695.935)" d="M0 0h5v61.733H0z"/><rect id="Rectangle_2966" data-name="Rectangle 2966" width="5" height="298.232" rx="2.5" transform="rotate(90 835.732 15521.733)"/><rect id="Rectangle_2988" data-name="Rectangle 2988" width="187" height="5" rx="2.5" transform="translate(16107.232 14400)"/><rect id="Rectangle_2989" data-name="Rectangle 2989" width="5" height="49" rx="2.5" transform="translate(16289.232 14401)"/><g id="Group_696" data-name="Group 696"><rect id="Rectangle_2970" data-name="Rectangle 2970" width="5" height="56" rx="2.5" transform="rotate(45 -9356.334 26911.924)"/><rect id="Rectangle_2967" data-name="Rectangle 2967" width="5" height="56" rx="2.5" transform="rotate(45 -9436.21 26947.838)"/><rect id="Rectangle_2971" data-name="Rectangle 2971" width="5" height="56" rx="2.5" transform="rotate(-45 25650.565 -12413.762)"/><g id="Ellipse_32" data-name="Ellipse 32" transform="translate(16263.732 14445.247)" fill="none" stroke="#000" stroke-width="5"><circle cx="27.5" cy="27.5" r="27.5" stroke="none"/><circle cx="27.5" cy="27.5" r="25"/></g><rect id="Rectangle_2990" data-name="Rectangle 2990" width="5" height="73" rx="2.5" transform="translate(16289.232 14498)"/></g></g></g></svg>